<svg width="184" height="33" viewBox="0 0 184 33" fill="none" xmlns="http://www.w3.org/2000/svg">
<path d="M6.99733 12.638H17.9793V17.84H6.99733V12.638ZM7.47333 26H0.741328V2.2H19.4073V7.402H7.47333V26ZM33.0721 26V22.566L32.6301 21.716V15.392C32.6301 14.372 32.3128 13.59 31.6781 13.046C31.0661 12.4793 30.0801 12.196 28.7201 12.196C27.8361 12.196 26.9408 12.3433 26.0341 12.638C25.1275 12.91 24.3568 13.2953 23.7221 13.794L21.5461 9.408C22.5888 8.728 23.8355 8.20667 25.2861 7.844C26.7595 7.45867 28.2215 7.266 29.6721 7.266C32.6641 7.266 34.9761 7.95733 36.6081 9.34C38.2628 10.7 39.0901 12.842 39.0901 15.766V26H33.0721ZM27.6321 26.306C26.1588 26.306 24.9121 26.0567 23.8921 25.558C22.8721 25.0593 22.0901 24.3793 21.5461 23.518C21.0248 22.6567 20.7641 21.6933 20.7641 20.628C20.7641 19.4947 21.0475 18.52 21.6141 17.704C22.2035 16.8653 23.0988 16.2307 24.3001 15.8C25.5015 15.3467 27.0541 15.12 28.9581 15.12H33.3101V18.486H29.8421C28.7995 18.486 28.0628 18.656 27.6321 18.996C27.2241 19.336 27.0201 19.7893 27.0201 20.356C27.0201 20.9227 27.2355 21.376 27.6661 21.716C28.0968 22.056 28.6861 22.226 29.4341 22.226C30.1368 22.226 30.7715 22.056 31.3381 21.716C31.9275 21.3533 32.3581 20.8093 32.6301 20.084L33.5141 22.464C33.1741 23.7333 32.5055 24.6967 31.5081 25.354C30.5335 25.9887 29.2415 26.306 27.6321 26.306ZM51.3958 26.306C49.0384 26.306 47.2024 25.728 45.8878 24.572C44.5731 23.3933 43.9158 21.6253 43.9158 19.268V3.458H50.3758V19.2C50.3758 19.8573 50.5571 20.3787 50.9198 20.764C51.2824 21.1267 51.7471 21.308 52.3138 21.308C53.0844 21.308 53.7418 21.1153 54.2858 20.73L55.8838 25.252C55.3398 25.6147 54.6711 25.8753 53.8778 26.034C53.0844 26.2153 52.2571 26.306 51.3958 26.306ZM41.2298 13.08V8.252H54.5918V13.08H41.2298ZM105.543 26.476C103.662 26.476 101.916 26.1813 100.307 25.592C98.7202 24.98 97.3375 24.1187 96.1589 23.008C95.0029 21.8973 94.0962 20.594 93.4389 19.098C92.7815 17.5793 92.4529 15.9133 92.4529 14.1C92.4529 12.2867 92.7815 10.632 93.4389 9.136C94.0962 7.61733 95.0029 6.30267 96.1589 5.192C97.3375 4.08133 98.7202 3.23133 100.307 2.642C101.916 2.03 103.662 1.724 105.543 1.724C107.742 1.724 109.702 2.10933 111.425 2.88C113.17 3.65067 114.621 4.76133 115.777 6.212L111.493 10.088C110.722 9.18133 109.872 8.49 108.943 8.014C108.036 7.538 107.016 7.3 105.883 7.3C104.908 7.3 104.013 7.45867 103.197 7.776C102.381 8.09333 101.678 8.558 101.089 9.17C100.522 9.75933 100.069 10.4733 99.7289 11.312C99.4115 12.1507 99.2529 13.08 99.2529 14.1C99.2529 15.12 99.4115 16.0493 99.7289 16.888C100.069 17.7267 100.522 18.452 101.089 19.064C101.678 19.6533 102.381 20.1067 103.197 20.424C104.013 20.7413 104.908 20.9 105.883 20.9C107.016 20.9 108.036 20.662 108.943 20.186C109.872 19.71 110.722 19.0187 111.493 18.112L115.777 21.988C114.621 23.416 113.17 24.5267 111.425 25.32C109.702 26.0907 107.742 26.476 105.543 26.476ZM127.123 26.306C125.105 26.306 123.315 25.898 121.751 25.082C120.187 24.266 118.951 23.144 118.045 21.716C117.161 20.2653 116.719 18.6107 116.719 16.752C116.719 14.8933 117.161 13.25 118.045 11.822C118.951 10.394 120.187 9.28333 121.751 8.49C123.315 7.674 125.105 7.266 127.123 7.266C129.14 7.266 130.931 7.674 132.495 8.49C134.081 9.28333 135.317 10.394 136.201 11.822C137.085 13.25 137.527 14.8933 137.527 16.752C137.527 18.6107 137.085 20.2653 136.201 21.716C135.317 23.144 134.081 24.266 132.495 25.082C130.931 25.898 129.14 26.306 127.123 26.306ZM127.123 21.172C127.871 21.172 128.528 21.002 129.095 20.662C129.684 20.322 130.149 19.8233 130.489 19.166C130.829 18.486 130.999 17.6813 130.999 16.752C130.999 15.8227 130.829 15.0407 130.489 14.406C130.149 13.7487 129.684 13.25 129.095 12.91C128.528 12.57 127.871 12.4 127.123 12.4C126.397 12.4 125.74 12.57 125.151 12.91C124.584 13.25 124.119 13.7487 123.757 14.406C123.417 15.0407 123.247 15.8227 123.247 16.752C123.247 17.6813 123.417 18.486 123.757 19.166C124.119 19.8233 124.584 20.322 125.151 20.662C125.74 21.002 126.397 21.172 127.123 21.172ZM148.543 26.306C146.866 26.306 145.336 25.9207 143.953 25.15C142.593 24.3567 141.505 23.2573 140.689 21.852C139.873 20.424 139.465 18.724 139.465 16.752C139.465 14.8027 139.873 13.1253 140.689 11.72C141.505 10.292 142.593 9.19267 143.953 8.422C145.336 7.65133 146.866 7.266 148.543 7.266C150.13 7.266 151.467 7.606 152.555 8.286C153.666 8.966 154.505 10.0087 155.071 11.414C155.638 12.8193 155.921 14.5987 155.921 16.752C155.921 18.9507 155.649 20.7527 155.105 22.158C154.561 23.5633 153.745 24.606 152.657 25.286C151.569 25.966 150.198 26.306 148.543 26.306ZM149.903 21.172C150.629 21.172 151.275 21.002 151.841 20.662C152.431 20.322 152.895 19.8233 153.235 19.166C153.575 18.486 153.745 17.6813 153.745 16.752C153.745 15.8227 153.575 15.0407 153.235 14.406C152.895 13.7487 152.431 13.25 151.841 12.91C151.275 12.57 150.629 12.4 149.903 12.4C149.155 12.4 148.487 12.57 147.897 12.91C147.331 13.25 146.877 13.7487 146.537 14.406C146.197 15.0407 146.027 15.8227 146.027 16.752C146.027 17.6813 146.197 18.486 146.537 19.166C146.877 19.8233 147.331 20.322 147.897 20.662C148.487 21.002 149.155 21.172 149.903 21.172ZM153.949 26V22.838L153.983 16.752L153.643 10.666V0.771999H160.103V26H153.949ZM173.916 26.306C171.74 26.306 169.836 25.898 168.204 25.082C166.594 24.2433 165.336 23.11 164.43 21.682C163.546 20.2313 163.104 18.588 163.104 16.752C163.104 14.916 163.534 13.284 164.396 11.856C165.28 10.4053 166.492 9.28333 168.034 8.49C169.575 7.674 171.309 7.266 173.236 7.266C175.049 7.266 176.704 7.64 178.2 8.388C179.696 9.11333 180.886 10.19 181.77 11.618C182.654 13.046 183.096 14.78 183.096 16.82C183.096 17.0467 183.084 17.3073 183.062 17.602C183.039 17.8967 183.016 18.1687 182.994 18.418H168.408V15.018H179.56L177.112 15.97C177.134 15.1313 176.976 14.406 176.636 13.794C176.318 13.182 175.865 12.706 175.276 12.366C174.709 12.026 174.04 11.856 173.27 11.856C172.499 11.856 171.819 12.026 171.23 12.366C170.663 12.706 170.221 13.1933 169.904 13.828C169.586 14.44 169.428 15.1653 169.428 16.004V16.99C169.428 17.8967 169.609 18.6787 169.972 19.336C170.357 19.9933 170.901 20.5033 171.604 20.866C172.306 21.206 173.145 21.376 174.12 21.376C175.026 21.376 175.797 21.2513 176.432 21.002C177.089 20.73 177.735 20.322 178.37 19.778L181.77 23.314C180.886 24.2887 179.798 25.0367 178.506 25.558C177.214 26.0567 175.684 26.306 173.916 26.306Z" fill="#1C1D1E"/>
<path d="M62.7268 32.596C61.3214 30.556 60.2334 28.176 59.4628 25.456C58.7148 22.7133 58.3408 19.7893 58.3408 16.684C58.3408 13.5787 58.7148 10.666 59.4628 7.946C60.2334 5.20333 61.3214 2.812 62.7268 0.771999H68.9148C67.4414 3.40133 66.3648 6.008 65.6848 8.592C65.0048 11.176 64.6648 13.8733 64.6648 16.684C64.6648 19.4947 65.0048 22.192 65.6848 24.776C66.3648 27.36 67.4414 29.9667 68.9148 32.596H62.7268ZM84.8661 32.596H78.6781C80.1741 29.9667 81.2508 27.36 81.9081 24.776C82.5881 22.192 82.9281 19.4947 82.9281 16.684C82.9281 13.8733 82.5881 11.176 81.9081 8.592C81.2508 6.008 80.1741 3.40133 78.6781 0.771999H84.8661C86.2941 2.812 87.3821 5.20333 88.1301 7.946C88.8781 10.666 89.2521 13.5787 89.2521 16.684C89.2521 19.7893 88.8781 22.7133 88.1301 25.456C87.3821 28.176 86.2941 30.556 84.8661 32.596Z" fill="#69CB2D"/>
</svg>
